<svg width="24" height="24" viewBox="0 0 24 24" fill="none" xmlns="http://www.w3.org/2000/svg">
<path d="M12 0C5.37188 0 0 5.37188 0 12C0 18.6281 5.37188 24 12 24C18.6281 24 24 18.6281 24 12C24 5.37188 18.6281 0 12 0ZM12 22.5C6.21094 22.5 1.5 17.7891 1.5 12C1.5 6.21094 6.21094 1.5 12 1.5C17.7891 1.5 22.5 6.21094 22.5 12C22.5 17.7891 17.7891 22.5 12 22.5ZM12 8.625C12.6211 8.625 13.125 8.12156 13.125 7.5C13.125 6.87891 12.6211 6.375 12 6.375C11.3789 6.375 10.875 6.87656 10.875 7.5C10.875 8.12344 11.3766 8.625 12 8.625ZM14.25 16.5H12.75V11.25C12.75 10.8375 12.4125 10.5 12 10.5H10.5C10.0875 10.5 9.75 10.8375 9.75 11.25C9.75 11.6625 10.0875 12 10.5 12H11.25V16.5H9.75C9.3375 16.5 9 16.8375 9 17.25C9 17.6625 9.3375 18 9.75 18H14.25C14.6642 18 15 17.6642 15 17.25C15 16.8375 14.6625 16.5 14.25 16.5Z" fill="#262D34"/>
</svg>
