<svg width="51" height="44" viewBox="0 0 51 44" fill="none" xmlns="http://www.w3.org/2000/svg">
<path opacity="0.4" d="M45.7779 0.723145H4.75275C2.13838 0.723145 0.0190735 2.78219 0.0190735 5.32223V39.0489C0.0190735 41.5879 2.13838 43.6479 4.75275 43.6479H45.7779C48.3923 43.6479 50.5116 41.5889 50.5116 39.0489V5.32223C50.5116 2.78219 48.3913 0.723145 45.7779 0.723145ZM10.9756 6.85526C13.5899 6.85526 15.7092 8.91431 15.7092 11.4543C15.7092 13.9944 13.6777 16.0534 10.9756 16.0534C8.27342 16.0534 6.24188 13.9944 6.24188 11.4543C6.24188 8.91431 8.44896 6.85526 10.9756 6.85526ZM44.0127 36.711C43.7365 37.2092 43.204 37.5158 42.6222 37.5158H8.10676C7.51298 37.5158 6.96969 37.1921 6.70046 36.6775C6.43123 36.1632 6.48202 35.5459 6.83202 35.0793L13.7353 25.8811C14.0327 25.4816 14.5061 25.2516 15.009 25.2516C15.512 25.2516 15.9869 25.4855 16.2842 25.8815L19.4853 30.1462L28.6864 16.8184C28.9833 16.3121 29.4763 16.0534 29.999 16.0534C30.5217 16.0534 31.0197 16.3094 31.3116 16.7361L43.9348 35.1325C44.2592 35.5995 44.2888 36.2032 44.0127 36.711Z" fill="#262D34"/>
</svg>
